<svg data-name="Layer 1" xmlns="http://www.w3.org/2000/svg" viewBox="0 0 474 516">
  <path d="M196 403s16-28 57-29c0 0 41 2 58 35 0 0-39 16-38 40 0 0-1 20 15 33 0 0-32-14-34 26 0 0-6-16-32 8 0 0-16-40-40-16 0 0 39-87 14-97z" fill="none"/>
  <path d="M322 408s27-62 82-45c0 0 61 14 70 67l-19 23s-38-43-80 0z" fill="none"/>
  <path fill="none" d="M196 298l104 7 58-54-13-26-51-7-98 80z"/>
  <path d="M34 233s1-44 15-38c0 0 11 18 55 6 0 0 67 79 87 32 0 0 62 17 56-26 0 0 70-17 25-59 0 0 65-81-54-87 0 0-1-79-68-52 0 0-30-28-62 15 0 0-49-21-54 42 0 0-55 7-16 64 0 0-36 44-7 101L0 252l12 5z" fill="none"/>
</svg>