<svg id="Layer_1" data-name="Layer 1" xmlns="http://www.w3.org/2000/svg" viewBox="0 0 733.5 412.5"><title>advtimeroom</title><path d="M95.25,295.5,131.42,311l36.91-11-1-8.75L134.92,277s-5.75-1.83-9.17,0l-25.33,6.33S96.08,287,95.25,295.5Z" fill="none"/><path d="M469,194.25l-8.83,32.42s-.5,2,2.25,3.66l25.25,6.25a4.66,4.66,0,0,0,5.41-3.41L501,200.75s1-2.75-2.5-3.42l-27.08-4.66A1.94,1.94,0,0,0,469,194.25Z" fill="none"/><path d="M468.5,33s-15,55,10,62.5c0,0,16.26,3,22.63-16.5L512,73s21.5-4.5,38,9c0,0,11.5,12.5,7,58l-2,23.5-32-4-25.5,30s-7.31-4.68-10.16,5.91l12.41,2.34s2.13-.59,1.25,3l-2.37,9.72h2.5l1.62-4.22,30,3L529.5,224h3.75L535,212.75h1.75S540.5,203.5,549,209l17.5-5.75V201l9,2.25L580,190.5l5.5.5s-1,2.75,4.75,2.75c0,0,8.25-6.5,1.25-9.75l-3.5.5-10-1.25L572.75,199l-6.5-1.75,1.5-11.5L566,182.5l12.25-40.25L584,84s5.75-35.75-24-46L514.5,24.5s-14.75-6.25-12.75-7c0,0-6.25-14.75-11.25-10.75C490.5,6.75,472.88,4.51,468.5,33Z" fill="none"/></svg>